HIERARCHY
ROOT Hips
{
  OFFSET 57.8838 95.319 338.509
  CHANNELS 6 Xposition Yposition Zposition Zrotation Xrotation Yrotation
  JOINT LeftUpLeg
  {
    OFFSET 8.64259 1.95398 -2.38835
    CHANNELS 3 Zrotation Xrotation Yrotation
    JOINT LeftLeg
    {
      OFFSET 43.7702 0 0
      CHANNELS 3 Zrotation Xrotation Yrotation
      JOINT LeftFoot
      {
        OFFSET 40.6238 0 0
        CHANNELS 3 Zrotation Xrotation Yrotation
        JOINT LeftToeBase
        {
          OFFSET 12.7242 0 0
          CHANNELS 3 Zrotation Xrotation Yrotation
          End Site
          {
            OFFSET 0 0 0
          }
        }
      }
    }
  }
  JOINT RightUpLeg
  {
    OFFSET -8.2249 1.95398 -2.59336
    CHANNELS 3 Zrotation Xrotation Yrotation
    JOINT RightLeg
    {
      OFFSET 43.5653 0 0
      CHANNELS 3 Zrotation Xrotation Yrotation
      JOINT RightFoot
      {
        OFFSET 40.6238 0 0
        CHANNELS 3 Zrotation Xrotation Yrotation
        JOINT RightToeBase
        {
          OFFSET 12.7242 0 0
          CHANNELS 3 Zrotation Xrotation Yrotation
          End Site
          {
            OFFSET 0 0 0
          }
        }
      }
    }
  }
  JOINT Spine
  {
    OFFSET 0.165834 0.87714 6.61349
    CHANNELS 3 Zrotation Xrotation Yrotation
    JOINT Spine1
    {
      OFFSET 7.38963 1.71661e-005 0
      CHANNELS 3 Zrotation Xrotation Yrotation
      JOINT Spine2
      {
        OFFSET 11.9445 1.14441e-005 0
        CHANNELS 3 Zrotation Xrotation Yrotation
        JOINT Spine3
        {
          OFFSET 14.7254 4.19617e-005 0
          CHANNELS 3 Zrotation Xrotation Yrotation
          JOINT Spine4
          {
            OFFSET 10.9679 0 0
            CHANNELS 3 Zrotation Xrotation Yrotation
            JOINT RightShoulder
            {
              OFFSET 2.46616 -1.6653 3.69651
              CHANNELS 3 Zrotation Xrotation Yrotation
              JOINT RightArm
              {
                OFFSET 13.0012 0 0
                CHANNELS 3 Zrotation Xrotation Yrotation
                JOINT RightForeArm
                {
                  OFFSET 28.7848 1.62311e-005 0
                  CHANNELS 3 Zrotation Xrotation Yrotation
                  JOINT RightHand
                  {
                    OFFSET 26.5688 1.62095e-005 0
                    CHANNELS 3 Zrotation Xrotation Yrotation
                    End Site
                    {
                      OFFSET 0 0 0
                    }
                  }
                }
              }
            }
            JOINT LeftShoulder
            {
              OFFSET 2.38034 -1.29275 -3.7523
              CHANNELS 3 Zrotation Xrotation Yrotation
              JOINT LeftArm
              {
                OFFSET 16.3182 6.07031e-005 0
                CHANNELS 3 Zrotation Xrotation Yrotation
                JOINT LeftForeArm
                {
                  OFFSET 27.0901 0 0
                  CHANNELS 3 Zrotation Xrotation Yrotation
                  JOINT LeftHand
                  {
                    OFFSET 24.5451 1.51738e-005 0
                    CHANNELS 3 Zrotation Xrotation Yrotation
                    End Site
                    {
                      OFFSET 0 0 0
                    }
                  }
                }
              }
            }
            JOINT Neck
            {
              OFFSET 5.0226 -0.0266342 0
              CHANNELS 3 Zrotation Xrotation Yrotation
              JOINT Head
              {
                OFFSET 6.69364 2.86102e-005 0
                CHANNELS 3 Zrotation Xrotation Yrotation
                End Site
                {
                  OFFSET 0 0 0
                }
              }
            }
          }
        }
      }
    }
  }
}
MOTION
Frames:	17
Frame Time:	0.0416667
-183.739 95.3287 184.311 97.7384 53.0938 85.5253 179.915 1.13251 87.1766 -10.0957 17.7736 1.84966 56.3127 1.57872 9.17073 35.8896 2.93022 4.49784 173.282 4.07383 94.2594 -20.4032 6.93436 -0.474988 69.4268 0.41241 12.8182 25.234 4.61885 0.893802 -0.619292 6.99887 -90.3737 12.873 -1.40869 -0.577566 1.2027 -1.43275 -0.515009 -21.336 -1.16999 -0.97427 -1.32331 -1.17 -0.974268 94.899 -56.6386 -92.3963 25.166 -8.3708 0.10287 16.0115 7.61657 -85.7307 -9.74129 -0.96768 6.65615 -84.2325 -56.3046 88.0921 -23.6907 11.298 -5.09398 -16.7933 1.12552 -41.6794 11.5383 -2.57383 -24.5186 12.3489 -1.03023 -3.65866 -26.9037 -1.85253 7.90725 
-183.715 95.3319 184.258 97.4204 52.9497 85.9103 179.956 1.38162 87.2951 -10.3234 17.5417 1.88433 56.3349 1.43578 9.25319 36.2662 3.08208 3.25952 173.356 4.11386 94.3861 -20.1933 6.83857 -0.460864 69.2738 0.40469 12.6799 25.2636 4.54898 1.14852 -0.599864 6.97914 -90.3844 12.9123 -1.37534 -0.602484 1.24195 -1.40052 -0.541367 -21.2963 -1.13069 -0.988003 -1.28368 -1.13067 -0.988005 94.9419 -56.7357 -92.323 25.3589 -9.31769 0.180945 14.8033 7.75765 -85.8496 -10.3125 -1.09164 7.36028 -84.1651 -56.2177 88.1781 -23.7979 11.2327 -5.15175 -16.9199 0.944176 -41.6869 12.0857 -2.67316 -24.5185 12.2963 -1.01556 -3.90034 -26.7769 -1.81539 8.11027 
-183.63 95.3536 184.123 96.7146 52.567 86.7966 -179.831 1.74551 87.61 -10.5456 17.4948 1.86011 56.5478 1.36167 9.21076 36.2251 3.07023 3.68738 173.521 4.21436 94.7161 -19.7952 6.68063 -0.428316 69.1383 0.274164 12.708 25.3544 4.44157 1.05372 -0.544594 6.94407 -90.4204 12.982 -1.28301 -0.684455 1.31153 -1.31189 -0.62733 -21.2257 -1.01798 -1.03841 -1.21302 -1.01798 -1.03842 94.9535 -56.7403 -92.3059 25.3386 -9.19913 0.0840527 12.0216 8.06244 -85.4605 -5.95044 -0.656264 8.51505 -84.1893 -56.1224 88.1341 -23.8303 11.3076 -5.1125 -17.2973 0.410792 -42.2574 13.683 -2.79928 -23.4144 12.2426 -1.06311 -3.97604 -26.6549 -1.86618 8.24657 
-183.505 95.3841 183.94 95.6487 51.9596 88.0558 -179.51 2.29537 88.0276 -10.7565 17.3224 1.75532 56.7947 1.32869 9.50186 36.369 3.13287 3.62875 173.684 4.39222 95.0532 -19.1964 6.08435 -0.281027 68.8178 0.226469 12.6175 25.4581 4.29502 1.14598 -0.462237 6.88297 -90.4705 13.1037 -1.14382 -0.800116 1.433 -1.17791 -0.749006 -21.1027 -0.85049 -1.10688 -1.09003 -0.850479 -1.10688 94.8787 -56.7036 -92.4173 25.3852 -9.18811 0.15437 10.7831 8.20145 -85.2916 -4.18122 -0.457926 8.68695 -84.2151 -56.1955 88.1052 -23.7071 11.5185 -5.01368 -18.0746 -0.402327 -43.2093 16.8941 -3.29563 -23.0903 12.488 -1.00751 -3.76767 -26.8511 -1.79611 7.91554 
-183.351 95.3882 183.766 94.6003 51.2559 89.5565 -178.97 3.12146 88.7992 -11.571 17.1054 1.6283 57.438 1.41784 9.37857 36.4127 3.15137 3.58123 174.057 4.41934 95.7451 -18.2967 5.82933 -0.230546 68.4326 0.0375298 12.6395 25.4138 4.38245 0.896511 -0.363315 6.81463 -90.5384 13.2398 -0.980689 -0.95474 1.56888 -1.02174 -0.910664 -20.965 -0.648428 -1.20532 -0.952325 -0.648435 -1.20532 94.9043 -56.7767 -92.3715 25.392 -9.26012 0.175539 11.0379 8.21391 -85.2047 -4.31141 -0.465124 8.42497 -84.1909 -55.9998 88.1193 -23.8757 11.5077 -4.92386 -18.6166 -1.05602 -44.1668 20.7074 -3.68673 -21.848 12.2968 -1.082 -3.98499 -26.4716 -1.83856 8.11744 
-183.178 95.4022 183.6 93.5755 50.4664 90.987 -178.452 3.74522 89.4886 -11.8726 17.0561 1.46293 57.8768 1.53421 9.65901 36.1949 3.05493 3.57899 174.345 4.63056 96.3663 -17.7362 5.64446 -0.138395 68.1757 -0.211645 12.8231 25.3467 4.446 1.10093 -0.253514 6.75542 -90.6161 13.3578 -0.800693 -1.13191 1.68667 -0.849724 -1.09559 -20.8452 -0.423522 -1.32019 -0.832596 -0.423519 -1.32019 94.9472 -56.6771 -92.3225 25.4321 -9.1877 0.134296 10.3579 8.20553 -85.3133 -3.81579 -0.42079 8.93171 -84.2514 -56.2091 88.0558 -23.7639 11.4544 -4.88435 -19.3392 -1.84547 -45.4207 25.5985 -4.09917 -20.4024 12.4064 -1.04651 -3.53335 -26.5494 -1.79952 7.57445 
-183.028 95.3987 183.52 92.6982 49.5825 92.1822 -177.942 4.47302 90.1327 -12.4417 16.8071 1.24769 58.4179 1.75754 9.95912 35.9392 2.94039 3.40913 174.731 4.86998 96.9607 -17.2108 5.32832 -0.145547 67.8128 -0.442199 12.8781 25.553 4.21797 0.738432 -0.143131 6.69522 -90.6677 13.4784 -0.607286 -1.2593 1.80697 -0.662134 -1.23136 -20.7235 -0.200792 -1.38356 -0.710839 -0.200773 -1.38357 94.8432 -56.805 -92.4552 25.3542 -8.98465 0.248029 10.9162 8.10109 -85.3489 -4.46875 -0.486201 8.5227 -84.1775 -56.468 88.1865 -23.4864 11.3233 -4.8985 -19.8422 -2.53774 -46.5357 31.1442 -4.81722 -19.9597 12.337 -0.99129 -3.26967 -26.5616 -1.72183 7.15029 
-182.899 95.3889 183.559 92.0207 48.7203 93.1658 -177.356 5.11866 90.813 -12.8916 16.7103 0.952094 58.7212 1.69909 9.89994 36.1593 3.03765 3.4462 175.297 5.13177 97.6358 -16.7297 4.94624 -0.312304 67.2937 -0.514529 12.6113 25.7548 3.93606 0.88498 -0.0314393 6.66708 -90.6885 13.5355 -0.396016 -1.32782 1.86393 -0.454053 -1.30912 -20.6658 0.0213103 -1.38543 -0.65314 0.0213303 -1.38545 94.7226 -57.0613 -92.595 25.3905 -8.71117 0.227578 11.0775 7.94526 -85.4015 -4.85076 -0.528546 8.40921 -84.0698 -55.8682 88.2769 -24.1101 11.1327 -4.96845 -19.9277 -3.18579 -47.5125 36.9158 -5.54512 -19.5738 11.8954 -1.11475 -4.71967 -25.6381 -1.79387 8.83324 
-182.824 95.3905 183.753 91.5877 47.7924 93.6041 -176.831 5.50832 91.2077 -12.9188 16.5163 0.547152 58.8004 1.5745 9.98134 36.3673 3.13303 3.68669 175.782 5.50643 98.0009 -16.621 4.82771 -0.599805 67.2673 -0.672901 12.9218 25.625 4.09698 0.96739 0.093332 6.67247 -90.693 13.526 -0.150763 -1.36861 1.85434 -0.210844 -1.36066 -20.6752 0.267481 -1.35066 -0.662522 0.267484 -1.35066 94.888 -57.2091 -92.3415 25.2658 -8.81012 0.165775 10.8577 8.01908 -85.3942 -4.15776 -0.441759 8.26518 -84.1317 -56.1078 88.2138 -23.8122 11.1439 -5.00215 -19.6359 -3.5057 -48.5366 42.4114 -5.84968 -18.2959 12.8056 -1.23662 -4.12535 -26.5825 -1.89679 7.89611 
-182.888 95.3874 183.964 91.1051 47.0656 93.854 -176.614 5.87763 91.2839 -12.6754 16.111 0.230018 58.8531 1.53277 10.0858 35.838 2.897 3.47037 176.032 6.08704 98.0476 -16.6967 4.55698 -0.750407 67.1631 -0.767141 12.9595 25.5772 4.18219 0.772082 0.146666 6.69668 -90.6644 13.4786 -0.0307668 -1.32661 1.80694 -0.0891149 -1.32397 -20.7231 0.36932 -1.27455 -0.710437 0.369328 -1.27455 94.377 -57.3835 -93.0441 25.2461 -9.03385 0.181665 9.97508 8.04834 -85.29 -4.22553 -0.444907 8.16235 -84.0327 -56.2463 88.3678 -23.5031 10.9408 -4.75512 -19.1526 -3.60356 -49.4444 45.9883 -6.00826 -17.4995 13.0576 -1.11988 -4.13233 -26.8675 -1.8179 8.01771 
-183.086 95.3904 184.063 91.2447 47.1324 93.5617 -176.811 5.71062 91.0342 -12.3568 15.9972 0.272315 58.6776 1.41775 9.92465 35.778 2.87186 3.62521 175.916 6.25044 97.7735 -16.9628 4.39069 -0.734575 67.0892 -0.511612 12.96 25.6265 4.1047 0.88325 0.167837 6.84396 -90.6309 13.1843 0.0290673 -1.26651 1.51273 -0.0266932 -1.26657 -21.0179 0.408346 -1.19924 -1.00521 0.408355 -1.19924 94.441 -57.5021 -92.9384 25.0031 -9.25226 -0.0826111 9.32953 8.21653 -84.7177 -3.69619 -0.331377 6.12343 -84.2278 -56.4363 88.1123 -22.9898 10.3967 -4.68773 -18.8096 -3.1907 -50.528 46.1626 -5.81692 -17.0292 12.3265 -1.33838 -4.31558 -25.263 -1.99061 8.46895 
-183.488 95.4222 184.433 91.6555 47.3704 92.443 -177.382 5.00362 90.1546 -10.9895 15.742 0.288461 58.1142 1.30049 10.1 34.8471 2.46047 3.44701 175.521 6.82406 96.9288 -17.974 4.04416 -0.717903 67.3283 -0.430988 12.6164 25.5117 4.24469 0.975317 0.175883 7.12429 -90.5327 12.6245 0.0953092 -1.07545 0.953139 0.0478691 -1.0786 -21.5789 0.414108 -0.997095 -1.56621 0.414095 -0.997108 94.641 -57.41 -92.6666 24.5535 -9.98073 -0.771462 8.61397 8.5537 -84.2015 -3.16369 -0.238923 4.40691 -84.221 -56.1865 88.0963 -23.1559 9.46373 -6.32909 -18.6764 -2.96632 -50.0377 43.4617 -5.65938 -17.496 13.2077 -1.44259 -4.87738 -25.3957 -2.07259 9.18155 
-184.244 95.3954 185.041 93.0072 47.6775 90.8522 -178.039 4.47732 89.3494 -10.4749 15.2373 0.526646 57.5031 0.883119 9.75581 34.4876 2.30201 3.534 175.131 7.05079 96.1374 -19.0829 3.88984 -0.67019 67.6024 -0.235904 12.8401 25.3296 4.53957 0.512094 0.104898 7.58058 -90.487 11.7118 -0.0198387 -0.967497 0.0404515 -0.0624211 -0.965685 -22.492 0.271835 -0.928736 -2.47934 0.271826 -0.928748 93.5437 -56.8154 -94.3069 23.9224 -10.2029 -2.66062 8.67089 8.76037 -82.8801 -3.48568 -0.253563 3.94663 -84.352 -56.5201 87.9467 -22.9292 8.60455 -8.70377 -19.3558 -3.0074 -49.6238 41.5869 -4.86037 -16.1629 12.5734 -0.884015 -3.65628 -24.7703 -1.5703 8.03129 
-185.377 95.3311 186.09 96.0029 47.755 87.658 -178.669 3.17667 88.2198 -9.90101 14.9615 0.665973 56.5031 0.260655 9.60489 34.2066 2.17809 3.52883 174.473 7.11274 94.846 -21.1737 3.03655 -0.578065 67.6886 -0.0257885 12.5666 25.5979 4.19709 0.398725 0.0585088 8.36585 -90.3614 10.1415 -0.0481589 -0.711879 -1.52961 -0.0794519 -0.709071 -24.0633 0.168013 -0.693443 -4.05063 0.168016 -0.693444 92.5155 -56.7032 -95.7899 22.3864 -10.2292 -6.52469 8.79273 8.96073 -80.7633 -3.32564 -0.229667 3.30361 -84.8667 -56.3012 87.1998 -22.263 7.86617 -13.2624 -20.9235 -3.35731 -47.4211 37.8794 -3.63603 -13.9917 12.08 -0.519178 -4.03704 -23.4931 -1.20558 8.8697 
-186.877 95.1571 187.315 95.5426 48.6461 87.1585 -179.947 4.68801 87.1314 -9.63658 14.6033 0.809713 55.4981 -0.442137 9.42102 33.383 1.81914 3.23062 173.94 9.56446 93.8296 -22.8059 2.53109 -0.137573 67.3755 0.2035 11.5527 26.5367 3.01055 -0.19209 -0.0384271 9.0608 -90.2928 8.75136 -0.206752 -0.566039 -2.91971 -0.23144 -0.556401 -25.4539 -0.0270675 -0.60201 -5.44121 -0.0270717 -0.602011 91.8061 -56.0688 -96.9111 20.8314 -8.98456 -11.7165 10.1978 9.57878 -77.2012 -0.285373 -0.00591709 2.38846 -86.118 -55.9058 85.3873 -21.7979 5.67775 -19.1886 -18.6622 -0.536302 -42.6748 26.9394 -2.07914 -11.7983 10.7535 0.162476 -4.69405 -21.7529 -0.605186 10.7547 
-188.653 94.7346 188.84 91.845 48.1281 89.9655 179.286 9.89682 87.1579 -11.9251 13.2561 0.718579 55.6966 -1.0876 9.36448 32.4005 1.41188 2.29864 174.208 14.3744 93.77 -24.1619 2.12273 0.322633 66.7402 0.313256 11.3965 26.09 3.59004 -0.024841 0.0281665 9.73242 -90.3362 7.4083 -0.0891615 -0.658917 -4.26281 -0.118073 -0.654377 -26.7966 0.112979 -0.65525 -6.784 0.112981 -0.655268 91.2773 -54.6635 -97.933 19.5487 -7.94156 -17.9074 10.9745 9.90944 -73.9257 0.175252 0.011526 0.536214 -87.0917 -55.3743 83.9357 -20.7965 4.8244 -25.3582 -15.5505 2.00385 -39.2447 8.7223 -1.22159 -15.9761 8.85986 -0.302371 -3.16567 -17.1866 -0.7428 8.47937 
-190.578 94.3149 190.454 88.6415 48.4413 92.4129 178.674 14.3855 87.2499 -13.2387 13.707 0.462781 55.407 -1.98542 9.28768 31.3345 0.938248 2.75635 174.008 18.6936 93.5498 -25.1481 1.83254 1.05512 66.0125 0.712634 10.9894 24.53 5.57067 0.699437 -0.000895866 10.5483 -90.3919 5.77615 -0.165664 -0.76609 -5.89501 -0.199236 -0.758063 -28.4283 0.0722132 -0.780455 -8.41571 0.0722214 -0.780459 90.0418 -53.4391 -99.9906 18.1135 -5.64896 -25.0826 11.0002 9.21163 -70.7029 -1.41249 -0.0701137 0.351969 -87.809 -53.4728 82.6094 -19.589 5.48253 -32.0279 -12.6531 5.61274 -37.7971 -1.83388 -0.185889 -21.7374 8.24499 0.292829 -5.97834 -13.6103 0.085932 14.2731 
